<mxfile host="drawio-plugin" modified="2024-03-08T15:31:51.116Z" agent="5.0 (Macintosh; Intel Mac OS X 10_15_7) AppleWebKit/537.36 (KHTML, like Gecko) Chrome/111.0.0.0 Safari/537.36" etag="ShKhS08_8DnqQsRL10SH" version="20.5.3" type="embed"><diagram id="wkH_lsjn6N1nRvHEFvS2" name="Page-1"><mxGraphModel dx="462" dy="1693" grid="1" gridSize="10" guides="1" tooltips="1" connect="1" arrows="1" fold="1" page="1" pageScale="1" pageWidth="850" pageHeight="1100" math="0" shadow="0"><root><mxCell id="0"/><mxCell id="1" parent="0"/><mxCell id="3" value="" style="endArrow=none;html=1;rounded=0;" parent="1" edge="1"><mxGeometry width="50" height="50" relative="1" as="geometry"><mxPoint y="120" as="sourcePoint"/><mxPoint x="590" y="120" as="targetPoint"/></mxGeometry></mxCell><mxCell id="2" value="" style="ellipse;whiteSpace=wrap;html=1;aspect=fixed;fillColor=#60a917;fontColor=#ffffff;strokeColor=#2D7600;" parent="1" vertex="1"><mxGeometry x="40" y="80" width="80" height="80" as="geometry"/></mxCell><mxCell id="6" value="&lt;b&gt;Master&lt;/b&gt;" style="text;html=1;strokeColor=none;fillColor=none;align=center;verticalAlign=middle;whiteSpace=wrap;rounded=0;" parent="1" vertex="1"><mxGeometry x="610" y="105" width="60" height="30" as="geometry"/></mxCell><mxCell id="10" value="" style="group" parent="1" vertex="1" connectable="0"><mxGeometry x="120" y="240" width="470" as="geometry"/></mxCell><mxCell id="7" value="" style="endArrow=none;html=1;rounded=0;exitX=0.5;exitY=1;exitDx=0;exitDy=0;" parent="10" source="2" edge="1"><mxGeometry width="50" height="50" relative="1" as="geometry"><mxPoint x="13.428571428571427" y="60" as="sourcePoint"/><mxPoint as="targetPoint"/></mxGeometry></mxCell><mxCell id="8" value="" style="endArrow=none;html=1;rounded=0;" parent="10" edge="1"><mxGeometry width="50" height="50" relative="1" as="geometry"><mxPoint as="sourcePoint"/><mxPoint x="469.99999999999994" as="targetPoint"/></mxGeometry></mxCell><mxCell id="11" value="&lt;b&gt;Local&lt;/b&gt;" style="text;html=1;strokeColor=none;fillColor=none;align=center;verticalAlign=middle;whiteSpace=wrap;rounded=0;" parent="1" vertex="1"><mxGeometry x="610" y="225" width="60" height="30" as="geometry"/></mxCell><mxCell id="12" value="" style="ellipse;whiteSpace=wrap;html=1;aspect=fixed;fillColor=#60a917;fontColor=#ffffff;strokeColor=#2D7600;" parent="1" vertex="1"><mxGeometry x="200" y="80" width="80" height="80" as="geometry"/></mxCell><mxCell id="13" value="" style="rhombus;whiteSpace=wrap;html=1;fillColor=#1ba1e2;fontColor=#ffffff;strokeColor=#006EAF;fontStyle=1" parent="1" vertex="1"><mxGeometry x="160" y="200" width="80" height="80" as="geometry"/></mxCell><mxCell id="15" value="&lt;h1 style=&quot;text-align: center;&quot;&gt;add&lt;/h1&gt;&lt;p&gt;&lt;span style=&quot;&quot;&gt;ajoute les modifications apportées à des fichiers à la zone de préparation&lt;/span&gt;&lt;br&gt;&lt;/p&gt;" style="text;html=1;strokeColor=none;fillColor=none;spacing=5;spacingTop=-20;whiteSpace=wrap;overflow=hidden;rounded=0;" parent="1" vertex="1"><mxGeometry x="160" y="290" width="90" height="140" as="geometry"/></mxCell><mxCell id="16" value="" style="rhombus;whiteSpace=wrap;html=1;fillColor=#1ba1e2;fontColor=#ffffff;strokeColor=#006EAF;" parent="1" vertex="1"><mxGeometry x="280" y="200" width="80" height="80" as="geometry"/></mxCell><mxCell id="18" value="" style="ellipse;whiteSpace=wrap;html=1;aspect=fixed;fillColor=#60a917;fontColor=#ffffff;strokeColor=#2D7600;" parent="1" vertex="1"><mxGeometry x="410" y="200" width="80" height="80" as="geometry"/></mxCell><mxCell id="19" value="&lt;h1 style=&quot;text-align: center;&quot;&gt;commit&lt;/h1&gt;&lt;p&gt;&lt;span style=&quot;&quot;&gt;crée un nouveau commit qui contient les modifications apportées aux fichiers. &lt;/span&gt;&lt;br&gt;&lt;/p&gt;" style="text;html=1;strokeColor=none;fillColor=none;spacing=5;spacingTop=-20;whiteSpace=wrap;overflow=hidden;rounded=0;" parent="1" vertex="1"><mxGeometry x="395" y="300" width="110" height="170" as="geometry"/></mxCell><mxCell id="20" value="" style="ellipse;whiteSpace=wrap;html=1;aspect=fixed;fillColor=#d80073;fontColor=#ffffff;strokeColor=#A50040;" vertex="1" parent="1"><mxGeometry x="490" y="80" width="80" height="80" as="geometry"/></mxCell><mxCell id="23" value="" style="endArrow=none;html=1;rounded=0;exitX=0.713;exitY=0.031;exitDx=0;exitDy=0;exitPerimeter=0;" edge="1" parent="1" source="18" target="20"><mxGeometry width="50" height="50" relative="1" as="geometry"><mxPoint x="530" y="230" as="sourcePoint"/><mxPoint x="580" y="180" as="targetPoint"/></mxGeometry></mxCell><mxCell id="24" value="" style="ellipse;whiteSpace=wrap;html=1;aspect=fixed;fillColor=#60a917;fontColor=#ffffff;strokeColor=#2D7600;" vertex="1" parent="1"><mxGeometry x="345" y="80" width="80" height="80" as="geometry"/></mxCell><mxCell id="25" value="&lt;h1&gt;push&lt;/h1&gt;&lt;p&gt;&lt;span style=&quot;&quot;&gt;envoie les commits locaux vers la branche &lt;/span&gt;&lt;code style=&quot;&quot; spellcheck=&quot;false&quot;&gt;master&lt;/code&gt;&lt;span style=&quot;&quot;&gt; du dépôt distant&lt;/span&gt;&lt;br&gt;&lt;/p&gt;" style="text;html=1;strokeColor=none;fillColor=none;spacing=5;spacingTop=-20;whiteSpace=wrap;overflow=hidden;rounded=0;" vertex="1" parent="1"><mxGeometry x="490" y="-60" width="80" height="140" as="geometry"/></mxCell></root></mxGraphModel></diagram></mxfile>